<?xml version="1.0" encoding="UTF-8"?>
<svg id="Camada_1" xmlns="http://www.w3.org/2000/svg" version="1.1" viewBox="0 0 1080 741.765">
  <!-- Generator: Adobe Illustrator 30.3.0, SVG Export Plug-In . SVG Version: 2.1.3 Build 182)  -->
  <defs>
    <style>
      .st0 {
        fill-rule: evenodd;
      }

      .st0, .st1 {
        fill: #1e4bc8;
      }
    </style>
  </defs>
  <g>
    <path class="st0" d="M544.944,273.272c20.793,0,36.845,8.425,47.901,22.112v-19.477h44.224v148.972h-44.224v-19.478c-11.056,13.686-27.108,22.111-47.901,22.113-38.165,0-68.701-33.432-68.701-76.861.002-43.954,30.536-77.381,68.701-77.381ZM557.051,312.753c-20.004,0-35.273,15.002-35.273,37.9,0,22.373,15.269,37.379,35.536,37.379,20.004,0,35.53-15.008,35.53-37.643-.002-22.634-15.528-37.636-35.794-37.637Z"/>
    <path class="st0" d="M275.287,227.474c38.692,0,63.438,20.003,63.438,51.587,0,19.74-10.53,35.007-27.638,40.008v4.999c22.899,6.317,33.691,23.689,33.692,45.534,0,34.216-25.268,55.274-64.486,55.276h-82.125v-197.404h77.119ZM242.122,385.398h32.901c15.53,0,24.483-7.898,24.483-21.847,0-14.475-9.481-22.632-24.483-22.632h-32.901v44.48ZM242.122,305.119h31.59c12.37,0,19.741-7.107,19.741-19.213,0-12.106-7.635-18.949-20.268-18.95h-31.064v38.164Z"/>
    <path class="st1" d="M413.024,300.383c6.316-15.002,18.949-24.476,36.847-24.476h20.267v37.11h-26.583c-18.161,0-26.584,6.053-26.585,23.686v88.177h-44.217l-.006-148.972h35.009l5.27,24.476Z"/>
    <path class="st1" d="M718.994,424.879h-44.217l-.006-148.972h44.224v148.972Z"/>
    <path class="st1" d="M835.48,273.272c30.005,0,47.114,20.53,47.116,51.587v100.02h-43.961v-86.069c0-16.055-7.371-23.686-20.531-23.686-13.16.001-21.843,9.475-21.843,24.74v85.015h-44.224v-148.972h44.224v15.789c8.424-10.79,22.111-18.423,39.219-18.423Z"/>
    <path class="st1" d="M723.065,223.379c0,14.345-11.629,25.974-25.975,25.974s-25.975-11.629-25.975-25.974,11.629-25.974,25.975-25.974,25.975,11.629,25.975,25.974Z"/>
  </g>
  <g>
    <path class="st1" d="M843.912,491.48h18.76c12.459,0,20.742,7.009,20.742,18.619,0,7.291-3.327,12.884-9.062,15.998l10.548,18.264h-10.76l-9.062-15.644c-.849.07-1.556.07-2.407.07h-9.628v15.574h-9.131v-52.881ZM853.043,520.151h8.284c7.291,0,12.672-3.257,12.672-10.053,0-6.725-5.38-9.981-12.672-9.981h-8.284v20.034Z"/>
    <path class="st1" d="M805.44,491.48h10.265l20.459,52.881h-9.486l-3.965-10.547h-24.635l-3.965,10.547h-9.202l20.53-52.881ZM801.334,525.106h18.123l-9.062-24.21-9.062,24.21Z"/>
    <path class="st1" d="M745.403,491.48h9.133v44.245h25.769v8.636h-34.902v-52.881Z"/>
    <path class="st1" d="M709.598,499.409c-8.495,0-15.716,6.371-15.716,18.547,0,12.106,7.222,18.547,15.716,18.547s15.786-6.441,15.786-18.547c0-12.176-7.291-18.547-15.786-18.547ZM709.598,490.774c14.725,0,25.202,10.122,25.202,27.183s-10.477,27.113-25.202,27.113-25.131-10.122-25.131-27.113,10.477-27.183,25.131-27.183Z"/>
    <path class="st1" d="M653.27,490.774c14.513,0,23.008,9.769,23.361,19.822h-9.698c-.496-5.592-5.38-11.115-13.663-11.115s-14.866,6.371-14.866,18.476c0,12.035,6.584,18.476,14.866,18.476s13.167-5.521,13.663-11.114h9.698c-.353,9.981-8.848,19.751-23.22,19.751s-24.423-9.841-24.423-27.113,9.983-27.183,24.282-27.183Z"/>
    <path class="st1" d="M600.338,490.774c12.388,0,19.113,6.443,19.113,15.715h-9.486c0-4.389-3.469-7.644-9.769-7.644-5.733,0-9.274,2.902-9.274,6.512s1.982,5.735,7.646,7.22l6.867,1.77c10.336,2.69,15.078,7.079,15.078,15.433,0,8.848-6.655,15.29-19.822,15.29s-20.459-6.867-20.459-16.92h9.486c0,5.451,4.177,9.557,11.044,9.557,6.725,0,10.265-3.398,10.265-7.787,0-3.751-2.054-5.805-7.999-7.22l-6.584-1.558c-11.115-2.619-15.08-7.928-15.08-15.645,0-8.495,6.797-14.724,18.973-14.724Z"/>
    <path class="st1" d="M534.07,491.48h36.67v8.708h-27.538v10.901h19.398v8.707h-19.398v15.857h27.821v8.707h-36.954v-52.881Z"/>
    <path class="st1" d="M469.473,499.409c-8.495,0-15.716,6.371-15.716,18.547,0,12.106,7.222,18.547,15.716,18.547s15.786-6.441,15.786-18.547c0-12.176-7.291-18.547-15.786-18.547ZM469.473,490.774c14.725,0,25.202,10.122,25.202,27.183s-10.477,27.113-25.202,27.113-25.131-10.122-25.131-27.113,10.477-27.183,25.131-27.183Z"/>
    <path class="st1" d="M410.079,491.482h10.265l20.459,52.881h-9.486l-3.965-10.548h-24.635l-3.965,10.548h-9.202l20.53-52.881ZM409.937,476.828c1.7,0,3.116.424,5.806,1.982,2.478,1.344,3.255,1.628,4.177,1.628,1.416,0,2.264-1.061,2.619-3.255l5.876,1.061c-.708,5.664-3.54,8.425-7.504,8.425-1.841,0-3.399-.426-6.018-1.913-2.335-1.416-2.974-1.699-3.965-1.699-1.628,0-2.548,1.062-2.831,3.328l-5.876-1.134c.708-5.662,3.469-8.423,7.716-8.423ZM405.974,525.107h18.123l-9.062-24.211-9.062,24.211Z"/>
    <path class="st1" d="M350.275,491.48h42.476v8.637h-16.708v44.244h-9.133v-44.244h-16.636v-8.637Z"/>
    <path class="st1" d="M325.818,490.774c12.389,0,19.114,6.443,19.114,15.715h-9.486c0-4.389-3.469-7.644-9.769-7.644-5.734,0-9.274,2.902-9.274,6.512s1.982,5.735,7.646,7.22l6.867,1.77c10.336,2.69,15.079,7.079,15.079,15.433,0,8.848-6.655,15.29-19.822,15.29s-20.459-6.867-20.459-16.92h9.486c0,5.451,4.177,9.557,11.044,9.557,6.725,0,10.265-3.398,10.265-7.787,0-3.751-2.053-5.805-8-7.22l-6.584-1.558c-11.115-2.619-15.079-7.928-15.079-15.645,0-8.495,6.796-14.724,18.972-14.724Z"/>
    <path class="st1" d="M259.553,491.48h36.67v8.708h-27.538v10.901h19.397v8.707h-19.397v15.857h27.821v8.707h-36.954v-52.881Z"/>
    <path class="st1" d="M222.498,490.774c13.026,0,21.096,7.22,23.786,16.848h-10.123c-1.982-4.672-6.796-8.213-13.521-8.213-9.061,0-15.716,6.584-15.716,18.547s6.796,18.547,15.928,18.547c8.07,0,14.229-6.655,15.079-12.884h-15.433v-7.928h24.636v4.813c0,15.007-10.123,24.564-24.636,24.564s-25.061-10.477-25.061-27.113,10.406-27.183,25.061-27.183Z"/>
  </g>
</svg>