<?xml version="1.0" encoding="UTF-8"?>
<svg xmlns="http://www.w3.org/2000/svg" viewBox="192.2 191.4 696.4 242.1">
  <defs>
    <style>
      .st0 {
        fill-rule: evenodd;
      }

      .st0, .st1 {
        fill: #1e4bc8;
      }
    </style>
  </defs>
  <g>
    <path class="st0" d="M544.944,273.272c20.793,0,36.845,8.425,47.901,22.112v-19.477h44.224v148.972h-44.224v-19.478c-11.056,13.686-27.108,22.111-47.901,22.113-38.165,0-68.701-33.432-68.701-76.861.002-43.954,30.536-77.381,68.701-77.381ZM557.051,312.753c-20.004,0-35.273,15.002-35.273,37.9,0,22.373,15.269,37.379,35.536,37.379,20.004,0,35.53-15.008,35.53-37.643-.002-22.634-15.528-37.636-35.794-37.637Z"/>
    <path class="st0" d="M275.287,227.474c38.692,0,63.438,20.003,63.438,51.587,0,19.74-10.53,35.007-27.638,40.008v4.999c22.899,6.317,33.691,23.689,33.692,45.534,0,34.216-25.268,55.274-64.486,55.276h-82.125v-197.404h77.119ZM242.122,385.398h32.901c15.53,0,24.483-7.898,24.483-21.847,0-14.475-9.481-22.632-24.483-22.632h-32.901v44.48ZM242.122,305.119h31.59c12.37,0,19.741-7.107,19.741-19.213,0-12.106-7.635-18.949-20.268-18.95h-31.064v38.164Z"/>
    <path class="st1" d="M413.024,300.383c6.316-15.002,18.949-24.476,36.847-24.476h20.267v37.11h-26.583c-18.161,0-26.584,6.053-26.585,23.686v88.177h-44.217l-.006-148.972h35.009l5.27,24.476Z"/>
    <path class="st1" d="M718.994,424.879h-44.217l-.006-148.972h44.224v148.972Z"/>
    <path class="st1" d="M835.48,273.272c30.005,0,47.114,20.53,47.116,51.587v100.02h-43.961v-86.069c0-16.055-7.371-23.686-20.531-23.686-13.16.001-21.843,9.475-21.843,24.74v85.015h-44.224v-148.972h44.224v15.789c8.424-10.79,22.111-18.423,39.219-18.423Z"/>
    <path class="st1" d="M723.065,223.379c0,14.345-11.629,25.974-25.975,25.974s-25.975-11.629-25.975-25.974,11.629-25.974,25.975-25.974,25.975,11.629,25.975,25.974Z"/>
  </g>
</svg>
